<?xml version="1.0" encoding="utf-8"?>
<!-- Generator: Adobe Illustrator 24.2.1, SVG Export Plug-In . SVG Version: 6.00 Build 0)  -->
<svg version="1.1" id="Layer_1" xmlns="http://www.w3.org/2000/svg" xmlns:xlink="http://www.w3.org/1999/xlink" x="0px" y="0px"
	 viewBox="0 0 375 375" style="enable-background:new 0 0 375 375;" xml:space="preserve">
<style type="text/css">
	.st0{fill:#ECC615;}
	.st1{fill:#03528F;}
	.st2{fill:#05538F;}
	.st3{fill:#04528F;}
	.st4{fill:#ECC718;}
	.st5{fill:#ECC716;}
	.st6{fill:#ECC717;}
	.st7{fill:#ECC719;}
	.st8{fill:#EDC81D;}
	.st9{fill:#EDC81E;}
	.st10{fill:#EDC81C;}
	.st11{fill:#EDC922;}
	.st12{fill:#EECB28;}
	.st13{fill:#F3DD75;}
	.st14{fill:#F7E9A7;}
	.st15{fill:#F8EAAA;}
	.st16{fill:#F1D450;}
</style>
<g id="surface1">
	<path class="st0" d="M61.43,173.47c-4.61,0-8.92,0-13.12,0c-6.33-6.93-11.23-8.25-17.52-4.79c-5.45,3-7.8,9.17-6.3,16.49
		c1.3,6.35,6.25,10.7,12.54,11.05c5.86,0.32,9.54-2.07,11.33-7.57c-4.5,0-8.93,0-13.45,0c-1.14-3.48-0.25-6.78-0.65-10.34
		c9.68,0,19.05,0,28.4,0c3.13,10.97-5.74,24.89-18.45,28.06c-15.28,3.81-27.9-4.18-31.73-18.24c-3.85-14.13,4.31-27.86,18.45-31.55
		C44.1,153.14,58.4,160.93,61.43,173.47z"/>
	<path class="st1" d="M208.89,157.41c0,15.65,0,31.07,0,46.67c-3.8,0-7.39,0-11.23,0c0-10.26,0-20.33,0-30.39
		c-9.01,9.61-16.66,20.16-24.95,30.41c-4.74,0-9.54,0-14.36,0c1.29-2.77,31.83-42.36,36-46.63
		C199.01,157.26,203.84,157.15,208.89,157.41z"/>
	<path class="st2" d="M312.34,157.98c4.06-0.4,7.66-0.21,11.59-0.14c0,5.59,0.02,10.83-0.01,16.07c-0.03,4.71,0.1,9.44-0.23,14.13
		c-0.69,9.7-5.18,14.68-14.39,16.16c-4.18,0.68-8.38,0.48-12.5-0.65c-6.77-1.86-11.05-7.03-11.33-14.95
		c-0.37-10.09-0.09-20.21-0.09-30.54c3.68-0.67,7.29-0.14,10.75-0.3c1.16,0.99,0.74,2.18,0.75,3.23c0.04,7.49,0.02,14.98,0.02,22.47
		c0,0.98-0.07,1.95,0.04,2.91c0.6,5.4,3.14,7.66,8.32,7.43c4.39-0.19,6.81-2.81,6.92-8c0.17-8.45,0.12-16.92,0.16-25.38
		C312.34,159.75,312.34,159.08,312.34,157.98z"/>
	<path class="st2" d="M359.37,160.08c-1.52,3.01-2.99,5.92-4.55,9c-3.53-1.42-6.75-4.21-10.71-1.88c-1.22,0.71-1.36,1.14-1.69,3.88
		c0.99,2.06,3,2.59,4.88,3.3c2.14,0.81,4.38,1.41,6.43,2.42c4.63,2.27,7.26,5.99,7.38,11.43c0.12,5.83-1.72,10.55-6.78,13.67
		c-7.37,4.54-20.31,2.79-25.96-2.88c1.36-3.03,2.88-6.05,4.78-9.12c2.79,1.63,5.2,3.69,8.36,4.22c1.67,0.28,3.22,0.27,4.73-0.47
		c1.42-0.7,2.39-1.77,2.53-3.47c0.13-1.76-0.84-2.91-2.2-3.67c-1.17-0.66-2.48-1.09-3.73-1.57c-1-0.39-2.04-0.74-3.04-1.1
		c-7.95-2.92-10.76-7.39-9.65-15.35c0.96-6.83,6.59-11.79,13.87-12.14C349.38,156.11,354.41,157.39,359.37,160.08z"/>
	<path class="st0" d="M65.76,167.21c-1.15-1.88-2.06-3.36-2.94-4.8c7.79-14.16,25.21-20.54,41.28-16.12
		c16.76,4.61,27.39,19.75,26.87,36.99c-0.54,17.92-13.15,31.21-28,34.89c-16.46,4.07-33.93-4.12-40.36-16.76
		c0.54-1.82,1.89-3.2,2.83-4.97c9.59,17.01,25.1,19.43,37.14,16.36c13.19-3.37,22.58-14.85,23.2-29.64
		c0.49-11.8-5.2-24.05-18.52-30.14c-7.59-3.48-15.48-3.67-23.38-1.24C75.87,154.22,70.11,159.7,65.76,167.21z"/>
	<path class="st1" d="M259.15,188.32c4.11,5.31,7.92,10.24,12.13,15.69c-4.8,0-8.91,0-13.32,0c-3.41-4.82-6.97-9.85-10.64-15.04
		c-3.56,0-7.05,0-10.65,0c-0.93-2.65-0.41-5.11-0.42-7.39c0.91-1.23,2.07-0.86,3.11-0.88c4.33-0.04,8.67,0.09,13-0.09
		c4.38-0.16,6.92-2.77,6.8-6.57c-0.12-3.68-2.47-5.91-6.86-6.1c-3.91-0.18-7.85-0.06-11.78-0.07c-1.32,0-2.66,0-4.13,0
		c-0.38-3.6-0.38-6.86,0-10.51c7.84-0.16,15.55-0.7,23.12,0.74c6.75,1.29,11.47,8.92,10.83,16.46
		C269.77,181.52,266.53,186.27,259.15,188.32z"/>
	<path class="st3" d="M149.87,186.46c0,5.89,0,11.53,0,17.34c-3.69,0.94-7.16,0.21-10.93,0.51c0-15.71,0-31.13,0-46.81
		c8.17,0,16.21,0,24.42,0c0.45,3.43,0.2,6.69,0.21,10.37c-4.63,0-9.03,0-13.6,0c0,2.73,0,5.04,0,7.66
		c4.19,0.96,8.55-0.16,12.86,0.67c0.63,3.23,0.14,6.38,0.32,9.75C158.67,186.7,154.36,185.93,149.87,186.46z"/>
	<path class="st1" d="M217.17,204.07c0-15.61,0-31.01,0-46.61c3.79,0,7.37,0,11.13,0c0,15.61,0,31.01,0,46.61
		C224.52,204.07,220.95,204.07,217.17,204.07z"/>
	<path class="st4" d="M95.69,169.23c3.41-0.51,6.45-0.5,9.75-0.45c1.27,4.44,2.2,8.8,1.96,13.8c-3.86,0-7.66,0-11.7,0
		C95.69,178.32,95.69,173.98,95.69,169.23z"/>
	<path class="st5" d="M92.86,182.85c-4.08,0.12-7.66,0.16-11.38-0.4c-0.64-4.77,0.29-9.12,1.62-13.58c3.19-0.37,6.23-0.03,9.46,0.12
		C93.14,173.62,92.76,178,92.86,182.85z"/>
	<path class="st4" d="M107.35,184.45c0.18,4.41-0.89,7.95-1.78,11.5c-3.17,1.12-6.23,0.95-9.81,0.77c-0.61-3.8-0.24-7.56-0.24-11.47
		C99.51,184.31,103.25,184.94,107.35,184.45z"/>
	<path class="st4" d="M81.38,184.79c3.93,0,7.4,0,11.12,0c0.68,4.02,0.36,7.8,0.23,11.75c-3.24,0.73-6.26,0.07-9.46-0.39
		C81.75,192.57,81.14,188.86,81.38,184.79z"/>
	<path class="st6" d="M72.64,167.44c2.7,0.31,4.95,0.58,7.48,0.87c-0.84,4.65-1.9,8.98-2.04,13.64c-3.3,0.33-6.3,0.12-9.51-0.95
		C68.42,176,70.05,171.65,72.64,167.44z"/>
	<path class="st6" d="M108.38,168.59c2.65-0.77,4.93-0.73,7.37-0.72c2.56,4.17,4.06,8.58,3.88,13.7c-3.14,0.77-6.07,0.63-9.45,0.47
		C110.19,177.56,109.61,173.23,108.38,168.59z"/>
	<path class="st4" d="M68.52,183.48c3.41,0.21,6.32,0.38,9.39,0.57c0.59,4.08,1.02,7.98,2.11,11.93c-2.67,0.45-4.91,0.14-7.37-0.07
		C70.14,192.41,69.01,188.4,68.52,183.48z"/>
	<path class="st7" d="M108.57,196.26c0.82-3.99,1.59-7.6,1.6-11.39c3.05-1.45,6.14-0.82,9.34-1.22c-0.12,4.7-1.66,8.42-3.75,11.96
		C113.38,196.4,111.12,196.13,108.57,196.26z"/>
	<path class="st8" d="M95.72,155.47c4.58,3,7.35,6.34,8.68,11.21c-3.04,0.53-5.7,0.51-8.86,0.3
		C95.38,163.46,95.3,159.98,95.72,155.47z"/>
	<path class="st6" d="M92.79,166.9c-3.02,0-5.67,0-8.76,0c1.62-4.82,3.91-8.54,8.56-11.03C93.08,159.73,92.83,163.11,92.79,166.9z"
		/>
	<path class="st9" d="M104.5,198.8c-2.09,3.99-3.96,7.41-8.61,8.52c-0.77-3-0.46-5.62-0.29-8.52
		C98.53,198.8,101.24,198.8,104.5,198.8z"/>
	<path class="st6" d="M84.29,198.84c2.98-0.5,5.48-0.21,8.19-0.12c0.75,2.87,0.21,5.68,0.37,8.77
		C88.08,206.24,86.05,202.95,84.29,198.84z"/>
	<path class="st8" d="M86.26,157.89c-2.32,2.36-3.83,5.28-5.2,8.33c-2.3,0.09-4.41,0.21-7.1-0.82c3.46-4.28,7.42-6.93,12.29-8.27
		c0.21,0.18,0.28,0.35,0.21,0.53C86.39,157.8,86.32,157.89,86.26,157.89z"/>
	<path class="st10" d="M104.11,158.03c5.09,2.14,7.31,3.88,9.69,7.71c-0.95,0.64-2.04,0.45-3.02,0.54c-0.93,0.07-1.86,0.02-3,0.02
		c-1.7-2.39-2.64-5.32-4.59-7.57l0.2-0.36C103.64,158.29,103.89,158.18,104.11,158.03z"/>
	<path class="st11" d="M84.62,205.39c-4.31-0.85-7.34-3.65-10.79-7.56c2.74,0.13,4.73,0.23,6.82,0.32c1.39,2.47,2.72,4.81,4.04,7.15
		L84.62,205.39z"/>
	<path class="st12" d="M104.02,204.44c1.59-1.71,2.36-3.95,3.66-5.86c1.89-0.94,3.83-0.55,6.46-0.74
		c-3.07,3.73-6.11,6.22-10.01,7.52c-0.25-0.18-0.34-0.38-0.3-0.59C103.89,204.55,103.94,204.44,104.02,204.44z"/>
	<path class="st13" d="M103.19,158.72c-0.6-0.26-1.09-0.61-1.1-1.37c0.59-0.36,0.98-0.19,1.25,0.39c0.23,0.28,0.3,0.6,0.23,0.96
		L103.19,158.72z"/>
	<path class="st14" d="M104.02,204.44c0.04,0.3,0.07,0.62,0.12,0.93c-0.23,0.55-0.55,0.86-1.17,0.46
		C102.94,205.07,103.45,204.73,104.02,204.44z"/>
	<path class="st15" d="M86.26,157.89c-0.01-0.26-0.01-0.53-0.01-0.78c0.15-0.17,0.29-0.33,0.46-0.52
		C87.23,157.31,86.88,157.66,86.26,157.89z"/>
	<path class="st0" d="M103.57,158.7c-0.07-0.32-0.15-0.63-0.23-0.95c0.26,0.1,0.52,0.19,0.78,0.29
		C103.93,158.25,103.75,158.48,103.57,158.7z"/>
	<path class="st16" d="M84.69,205.31c0.21,0.12,0.42,0.25,0.63,0.39c-0.49,0.5-0.62,0.16-0.7-0.31L84.69,205.31z"/>
</g>
</svg>
