<?xml version="1.0" encoding="utf-8"?>
<!-- Generator: Adobe Illustrator 24.2.1, SVG Export Plug-In . SVG Version: 6.00 Build 0)  -->
<svg version="1.1" id="Layer_1" xmlns="http://www.w3.org/2000/svg" xmlns:xlink="http://www.w3.org/1999/xlink" x="0px" y="0px"
	 viewBox="0 0 612 792" style="enable-background:new 0 0 612 792;" xml:space="preserve">
<style type="text/css">
	.st0{fill:#FEFEFE;}
	.st1{fill:#ECC615;}
	.st2{fill:#03528F;}
	.st3{fill:#05538F;}
	.st4{fill:#04528F;}
	.st5{fill:#ECC718;}
	.st6{fill:#ECC716;}
	.st7{fill:#ECC717;}
	.st8{fill:#ECC719;}
	.st9{fill:#EDC81D;}
	.st10{fill:#EDC81E;}
	.st11{fill:#EDC81C;}
	.st12{fill:#EDC922;}
	.st13{fill:#EECB28;}
</style>
<g>
	<g>
		<circle class="st0" cx="306" cy="396" r="353.55"/>
		<path class="st1" d="M154.32,391.52c1.46,4.11,0.14,7.84-0.77,11.39c-3.11,12.11-11.02,20.25-23.09,22.63
			c-18.4,3.62-33.92-4.72-38.5-23.68c-3.81-15.74,5.27-32.81,24.03-36.63c11.05-2.25,21.4,0.47,29.92,8.43
			c2.9,2.71,5.24,6.94,6.74,12.1c-5.34,0-10.64,0-16.23,0c-1.1-0.35-1.74-1.61-2.59-2.6c-4.11-4.79-9.48-6.34-15.26-4.77
			c-6.07,1.64-10.22,5.65-11.69,12.22c-2.36,10.53,3.82,20.06,12.48,22.12c7.8,1.86,14.49-1.34,17.12-8.81c-2.91,0-5.72,0-8.53,0
			c-2.8,0-5.59,0-8.63,0c0-4.28,0-8.21,0-12.16C122.7,390.95,147.9,390.74,154.32,391.52z"/>
		<path class="st2" d="M315.56,366.38c6.2,0,11.99,0,17.78,0c0.95,3.3,1.24,49.33,0.31,56.21c-4.38,0-8.79,0-13.54,0
			c0-12.35,0-24.6,0-38.09c-6.05,6.79-10.77,13.17-15.73,19.36c-4.98,6.22-9.99,12.41-15.07,18.73c-6.01,0-11.95,0-18.55,0
			C285.89,403.61,300.76,384.96,315.56,366.38z"/>
		<path class="st3" d="M427.88,367.09c4.95,0,9.37,0,13.81,0c0.73,1.59,0.39,3.1,0.4,4.55c0.04,8.66,0.02,17.33,0.02,25.99
			c0,1-0.06,2,0.01,3c0.51,7.48,5.33,11.04,12.6,9.34c3.64-0.85,6.17-4.31,6.24-9.13c0.15-9.16,0.11-18.32,0.15-27.48
			c0.01-1.97,0-3.94,0-6.18c4.72,0,9.13,0,13.55,0c1.04,0.95,0.57,2.19,0.57,3.28c0.04,9.66,0.04,19.32,0.02,28.99
			c-0.01,3.99-0.17,7.95-1.79,11.73c-2.22,5.2-5.85,8.78-11.33,10.38c-7.03,2.06-14.08,2.16-21.08-0.01
			c-7.29-2.25-12.34-7.56-13.01-18.05c-0.4-6.31-0.15-12.65-0.17-18.98C427.87,378.86,427.88,373.21,427.88,367.09z"/>
		<path class="st3" d="M513.32,380.47c-2.61-1.17-4.66-2.23-6.82-3.02c-2.34-0.86-4.62-0.35-6.63,1.04
			c-1.65,1.15-2.35,2.77-1.54,4.97c1.51,1.95,3.86,2.72,6.23,3.52c2.66,0.89,5.38,1.56,7.88,2.91c6.39,3.47,9.13,8.74,8.68,16.01
			c-0.43,7.03-3.71,12.3-9.99,14.86c-10.56,4.3-20.72,2.71-30.4-3.93c1.69-4,3.62-7.57,5.85-10.93c1.23-0.24,2,0.45,2.74,1.11
			c2.18,1.93,4.81,2.8,7.58,3.5c3.64,0.93,6.53,0.07,8.7-2.93c0.36-4.47,0.07-5.17-3.43-6.63c-3.2-1.34-6.47-2.5-9.73-3.7
			c-4.86-1.79-8.49-5.04-9.27-10.16c-1.92-12.46,4.79-20.82,17.06-21.96c4.6-0.43,13.74,1.43,18.75,4.64
			C517.16,373.22,515.31,376.71,513.32,380.47z"/>
		<path class="st1" d="M157.5,377.85c-1.23-1.99-2.35-3.8-3.43-5.56c11.08-18.54,33.21-24.3,51.42-19.09
			c20.47,5.86,33.65,23.84,32.48,45.4c-1.01,18.66-12.91,34.39-31.7,40.12c-21.18,6.46-42.85-2.69-52.36-19.18
			c0.42-2.45,2.37-4.14,3.62-6.3c5.83,10.95,14.7,18.08,26.79,20.28c22.26,4.03,41.72-7.98,46.41-29.45
			c4.71-21.55-8.95-41.85-31.06-45.78c-12.75-2.27-24.7,0.8-34.46,10.08c-2.06,1.96-3.75,4.21-5.23,6.62
			C159.37,375.98,158.81,376.98,157.5,377.85z"/>
		<path class="st2" d="M380.97,404.15c-4.44,0-8.87,0-13.59,0c-0.07-3.36-0.4-6.27,0.28-9.56c7.82-0.88,15.63,0.24,23.13-0.65
			c3.27-1.42,4.51-4.01,4.99-7.2c-1.53-6.21-3.15-7.61-9.47-7.7c-6.15-0.09-12.3-0.02-18.73-0.02c-0.45-4.26-0.62-8.29,0.09-12.4
			c2.49-0.83,4.82-0.4,7.1-0.42c6.31-0.05,12.6-0.03,18.91,0.63c8.9,0.92,13.74,7.35,15.2,14.18c0.46,2.15,0.74,4.42,0.49,6.83
			c-0.87,8.28-5.15,13.37-13.6,15.72c4.91,6.25,9.66,12.29,14.91,18.96c-5.78,0.54-10.83,0.17-16.09,0.29
			C390.13,416.71,385.65,410.57,380.97,404.15z"/>
		<path class="st4" d="M261.06,422.57c-4.62,0-8.86,0-13.03,0c-1.02-4.01-1.05-51.88-0.03-56.12c9.84,0,19.74,0,29.88,0
			c0,4.08,0,8.02,0,12.38c-5.34,0-10.76,0-16.41,0c-0.62,3.31-0.38,6.23-0.14,9.57c5.29,0.9,10.62-0.06,16.02,0.57
			c0.8,3.85,0.17,7.63,0.44,11.69c-5.46,0.91-10.76,0.06-16.59,0.6C260.99,408.27,261.23,415.34,261.06,422.57z"/>
		<path class="st2" d="M344.06,366.33c4.82,0,9.09,0,13.65,0c0,18.69,0,37.25,0,56.06c-2.01,0.98-4.35,0.27-6.6,0.4
			c-2.28,0.13-4.57,0.03-7.05,0.03C344.06,403.8,344.06,385.25,344.06,366.33z"/>
		<path class="st5" d="M194.4,396.76c0-5.29,0-10.52,0-15.97c4.03-1.22,7.98-0.53,12.11-0.79c1.68,5.42,2.86,10.78,2.41,16.77
			C204.07,396.76,199.36,396.76,194.4,396.76z"/>
		<path class="st6" d="M179.31,380.18c3.9,0,7.5,0,11.42,0c0.68,5.57,0.24,10.96,0.29,16.62c-4.61,0-9.01,0-13.78,0
			C176.4,390.97,177.07,385.46,179.31,380.18z"/>
		<path class="st5" d="M206.74,412.72c-3.92,1.45-7.79,1.38-12.29,0.88c-0.58-4.57-0.16-9.08-0.27-13.49
			c2.74-1.54,5.27-0.79,7.66-0.94c2.26-0.15,4.54-0.03,7.08-0.03C209.31,404.07,207.79,408.36,206.74,412.72z"/>
		<path class="st5" d="M176.98,399.15c4.73,0,9.01,0,13.9,0c0.38,4.82,0.2,9.53,0.07,14.36c-3.97,1.06-7.65-0.04-11.58-0.6
			C177.33,408.76,176.78,404.27,176.98,399.15z"/>
		<path class="st7" d="M166.35,378.33c3,1.24,6.29,0.04,9.38,1.48c-1.66,5.28-2.41,10.39-2.82,15.58
			c-3.11,1.12-7.13,0.87-11.75-0.72C161.01,388.69,163.13,383.38,166.35,378.33z"/>
		<path class="st7" d="M223.97,395.84c-3.98,0-7.58,0-11.77,0c0.1-5.27-0.29-10.61-2.04-15.81c3.11-1.58,6.12-0.77,9.16-1.12
			C222.26,384.01,224.41,389.22,223.97,395.84z"/>
		<path class="st5" d="M161.1,398.24c4.08,0,7.81,0,11.69,0c0.49,5.02,1.2,9.68,2.51,14.46c-3.16,0.64-5.93,0.12-8.81,0.2
			C163.01,408.6,161.9,403.59,161.1,398.24z"/>
		<path class="st8" d="M218.79,412.86c-3.06,0-5.67,0-8.46,0c1.28-4.49,2.1-8.82,1.79-13.3c3.75-1.92,7.56-1.33,11.68-1.59
			C223.91,403.63,221.83,408.23,218.79,412.86z"/>
		<path class="st9" d="M194.43,377.94c0-4.68,0-8.75,0-12.86c4.97,1.1,9.53,6.64,10.47,12.6
			C201.48,378.23,198.07,378.11,194.43,377.94z"/>
		<path class="st7" d="M191.18,377.88c-3.84,0-7.11,0-10.4,0c1.01-5.82,4.5-10.35,9.96-12.89
			C191.51,369.14,190.81,373.26,191.18,377.88z"/>
		<path class="st10" d="M194.11,416.15c3.88,0,7.26,0,10.69,0c-1.76,6.02-5.32,9.44-10.24,9.76
			C193.67,422.9,194.39,419.8,194.11,416.15z"/>
		<path class="st7" d="M181.06,416.14c3.15,0,6.23,0,9.6,0c0.85,3.3,0.25,6.7,0.39,10.12C185.3,424.84,183.06,422.56,181.06,416.14z
			"/>
		<path class="st9" d="M176.74,376.83c-5.52,0.27-5.52,0.27-8.61-1.12c3.72-4.86,8.75-7.54,15.24-10.08
			C180.84,370.02,177.88,373.03,176.74,376.83z"/>
		<path class="st11" d="M217.37,376.44c-2.82,0.94-5.26,0.51-7.78,0.66c-2.49-2.83-3.23-6.61-5.52-9.62
			C209.64,368.77,213.89,371.62,217.37,376.44z"/>
		<path class="st12" d="M176.14,415.46c1.5,2.73,3.01,5.45,5.25,8.08c-3.49,1.16-5.09-1.67-7.29-2.63
			c-2.43-1.05-4.05-3.32-6.24-5.69C170.93,414.94,173.45,414.97,176.14,415.46z"/>
		<path class="st13" d="M204.4,423.88c2.51-2.48,3.13-6.15,5.8-8.65c2.06,0,4.19,0,6.68,0C213.61,419.67,209.59,422.55,204.4,423.88
			z"/>
	</g>
</g>
</svg>
