<?xml version="1.0" encoding="utf-8"?>
<!-- Generator: Adobe Illustrator 24.2.1, SVG Export Plug-In . SVG Version: 6.00 Build 0)  -->
<svg version="1.1" id="Layer_1" xmlns="http://www.w3.org/2000/svg" xmlns:xlink="http://www.w3.org/1999/xlink" x="0px" y="0px"
	 viewBox="0 0 312 87" style="enable-background:new 0 0 312 87;" xml:space="preserve">
<style type="text/css">
	.st0{fill:#ECC615;}
	.st1{fill:#03528F;}
	.st2{fill:#05538F;}
	.st3{fill:#04528F;}
	.st4{fill:#ECC718;}
	.st5{fill:#ECC716;}
	.st6{fill:#ECC717;}
	.st7{fill:#ECC719;}
	.st8{fill:#EDC81D;}
	.st9{fill:#EDC81E;}
	.st10{fill:#EDC81C;}
	.st11{fill:#EDC922;}
	.st12{fill:#EECB28;}
	.st13{fill:#F3DD75;}
	.st14{fill:#F7E9A7;}
	.st15{fill:#F8EAAA;}
	.st16{fill:#F1D450;}
</style>
<g id="surface1">
	<path class="st0" d="M47.9,38c-3.9,0-7.6,0-11.2,0c-5.4-5.9-9.6-7.1-15-4.1c-4.7,2.6-6.7,7.8-5.4,14.1c1.1,5.4,5.3,9.2,10.7,9.5
		c5,0.3,8.2-1.8,9.7-6.5c-3.9,0-7.6,0-11.5,0c-1-3-0.2-5.8-0.6-8.8c8.3,0,16.3,0,24.3,0c2.7,9.4-4.9,21.3-15.8,24
		C20.1,69.4,9.3,62.6,6,50.5c-3.3-12.1,3.7-23.8,15.8-27C33.1,20.6,45.3,27.2,47.9,38z"/>
	<path class="st1" d="M174.1,24.2c0,13.4,0,26.6,0,39.9c-3.3,0-6.3,0-9.6,0c0-8.8,0-17.4,0-26c-7.7,8.2-14.3,17.3-21.3,26
		c-4.1,0-8.2,0-12.3,0c1.1-2.4,27.2-36.3,30.8-39.9C165.6,24.1,169.8,24,174.1,24.2z"/>
	<path class="st2" d="M262.6,24.7c3.5-0.3,6.6-0.2,9.9-0.1c0,4.8,0,9.3,0,13.8c0,4,0.1,8.1-0.2,12.1c-0.6,8.3-4.4,12.6-12.3,13.8
		c-3.6,0.6-7.2,0.4-10.7-0.6c-5.8-1.6-9.4-6-9.7-12.8c-0.3-8.6-0.1-17.3-0.1-26.1c3.1-0.6,6.2-0.1,9.2-0.3c1,0.8,0.6,1.9,0.6,2.8
		c0,6.4,0,12.8,0,19.2c0,0.8-0.1,1.7,0,2.5c0.5,4.6,2.7,6.6,7.1,6.4c3.8-0.2,5.8-2.4,5.9-6.8c0.1-7.2,0.1-14.5,0.1-21.7
		C262.6,26.2,262.6,25.7,262.6,24.7z"/>
	<path class="st2" d="M302.8,26.5c-1.3,2.6-2.6,5.1-3.9,7.7c-3-1.2-5.8-3.6-9.2-1.6c-1,0.6-1.2,1-1.4,3.3c0.8,1.8,2.6,2.2,4.2,2.8
		c1.8,0.7,3.7,1.2,5.5,2.1c4,1.9,6.2,5.1,6.3,9.8c0.1,5-1.5,9-5.8,11.7c-6.3,3.9-17.4,2.4-22.2-2.5c1.2-2.6,2.5-5.2,4.1-7.8
		c2.4,1.4,4.4,3.2,7.2,3.6c1.4,0.2,2.8,0.2,4-0.4c1.2-0.6,2-1.5,2.2-3c0.1-1.5-0.7-2.5-1.9-3.1c-1-0.6-2.1-0.9-3.2-1.3
		c-0.9-0.3-1.7-0.6-2.6-0.9c-6.8-2.5-9.2-6.3-8.3-13.1c0.8-5.8,5.6-10.1,11.9-10.4C294.3,23.1,298.6,24.2,302.8,26.5z"/>
	<path class="st0" d="M51.6,32.6c-1-1.6-1.8-2.9-2.5-4.1c6.7-12.1,21.6-17.6,35.3-13.8c14.3,3.9,23.4,16.9,23,31.7
		c-0.5,15.3-11.2,26.7-24,29.9c-14.1,3.5-29-3.5-34.5-14.3c0.5-1.6,1.6-2.7,2.4-4.3c8.2,14.6,21.5,16.6,31.8,14
		c11.3-2.9,19.3-12.7,19.8-25.4c0.4-10.1-4.4-20.6-15.8-25.8c-6.5-3-13.2-3.1-20-1.1C60.3,21.5,55.4,26.2,51.6,32.6z"/>
	<path class="st1" d="M217.1,50.7c3.5,4.5,6.8,8.8,10.4,13.4c-4.1,0-7.6,0-11.4,0c-2.9-4.1-6-8.4-9.1-12.9c-3,0-6,0-9.1,0
		c-0.8-2.3-0.3-4.4-0.4-6.3c0.8-1.1,1.8-0.7,2.7-0.8c3.7,0,7.4,0.1,11.1-0.1c3.7-0.1,5.9-2.4,5.8-5.6c-0.1-3.1-2.1-5.1-5.9-5.2
		c-3.3-0.2-6.7-0.1-10.1-0.1c-1.1,0-2.3,0-3.5,0c-0.3-3.1-0.3-5.9,0-9c6.7-0.1,13.3-0.6,19.8,0.6c5.8,1.1,9.8,7.6,9.3,14.1
		C226.2,44.9,223.4,48.9,217.1,50.7z"/>
	<path class="st3" d="M123.6,49.1c0,5,0,9.9,0,14.8c-3.2,0.8-6.1,0.2-9.3,0.4c0-13.4,0-26.6,0-40.1c7,0,13.9,0,20.9,0
		c0.4,2.9,0.2,5.7,0.2,8.9c-4,0-7.7,0-11.6,0c0,2.3,0,4.3,0,6.6c3.6,0.8,7.3-0.1,11,0.6c0.5,2.8,0.1,5.5,0.3,8.3
		C131.1,49.3,127.4,48.6,123.6,49.1z"/>
	<path class="st1" d="M181.2,64.2c0-13.4,0-26.5,0-39.9c3.2,0,6.3,0,9.5,0c0,13.4,0,26.5,0,39.9C187.4,64.2,184.4,64.2,181.2,64.2z"
		/>
	<path class="st4" d="M77.2,34.3c2.9-0.4,5.5-0.4,8.3-0.4c1.1,3.8,1.9,7.5,1.7,11.8c-3.3,0-6.6,0-10,0
		C77.2,42.1,77.2,38.4,77.2,34.3z"/>
	<path class="st5" d="M74.8,46c-3.5,0.1-6.6,0.1-9.7-0.3c-0.6-4.1,0.3-7.8,1.4-11.6c2.7-0.3,5.3,0,8.1,0.1
		C75.1,38.1,74.7,41.8,74.8,46z"/>
	<path class="st4" d="M87.2,47.4c0.2,3.8-0.8,6.8-1.5,9.8c-2.7,1-5.3,0.8-8.4,0.7c-0.5-3.3-0.2-6.5-0.2-9.8
		C80.5,47.3,83.7,47.8,87.2,47.4z"/>
	<path class="st4" d="M65,47.7c3.4,0,6.3,0,9.5,0c0.6,3.4,0.3,6.7,0.2,10.1c-2.8,0.6-5.4,0.1-8.1-0.3C65.3,54.3,64.8,51.1,65,47.7z"
		/>
	<path class="st6" d="M57.5,32.8c2.3,0.3,4.2,0.5,6.4,0.7c-0.7,4-1.6,7.7-1.7,11.7c-2.8,0.3-5.4,0.1-8.1-0.8
		C53.9,40.1,55.3,36.4,57.5,32.8z"/>
	<path class="st6" d="M88.1,33.8c2.3-0.7,4.2-0.6,6.3-0.6c2.2,3.6,3.5,7.3,3.3,11.7c-2.7,0.7-5.2,0.5-8.1,0.4
		C89.6,41.5,89.1,37.8,88.1,33.8z"/>
	<path class="st4" d="M54,46.5c2.9,0.2,5.4,0.3,8,0.5c0.5,3.5,0.9,6.8,1.8,10.2c-2.3,0.4-4.2,0.1-6.3-0.1
		C55.4,54.2,54.4,50.8,54,46.5z"/>
	<path class="st7" d="M88.3,57.5c0.7-3.4,1.4-6.5,1.4-9.8c2.6-1.2,5.3-0.7,8-1c-0.1,4-1.4,7.2-3.2,10.2
		C92.4,57.6,90.4,57.4,88.3,57.5z"/>
	<path class="st8" d="M77.3,22.6c3.9,2.6,6.3,5.4,7.4,9.6c-2.6,0.5-4.9,0.4-7.6,0.3C77,29.4,76.9,26.4,77.3,22.6z"/>
	<path class="st6" d="M74.8,32.4c-2.6,0-4.8,0-7.5,0c1.4-4.1,3.3-7.3,7.3-9.4C75,26.2,74.8,29.1,74.8,32.4z"/>
	<path class="st9" d="M84.8,59.7c-1.8,3.4-3.4,6.3-7.4,7.3c-0.7-2.6-0.4-4.8-0.2-7.3C79.7,59.7,82,59.7,84.8,59.7z"/>
	<path class="st6" d="M67.5,59.7c2.5-0.4,4.7-0.2,7-0.1c0.6,2.5,0.2,4.9,0.3,7.5C70.7,66,69,63.2,67.5,59.7z"/>
	<path class="st8" d="M69.2,24.6c-2,2-3.3,4.5-4.4,7.1c-2,0.1-3.8,0.2-6.1-0.7c3-3.7,6.3-5.9,10.5-7.1c0.2,0.2,0.2,0.3,0.2,0.4
		C69.3,24.6,69.2,24.6,69.2,24.6z"/>
	<path class="st10" d="M84.4,24.8c4.4,1.8,6.3,3.3,8.3,6.6c-0.8,0.6-1.7,0.4-2.6,0.5c-0.8,0.1-1.6,0-2.6,0c-1.5-2-2.3-4.6-3.9-6.5
		l0.2-0.3C84,25,84.2,24.9,84.4,24.8z"/>
	<path class="st11" d="M67.8,65.3c-3.7-0.7-6.3-3.1-9.2-6.5c2.3,0.1,4,0.2,5.8,0.3C65.6,61.2,66.7,63.2,67.8,65.3L67.8,65.3z"/>
	<path class="st12" d="M84.4,64.5c1.4-1.5,2-3.4,3.1-5c1.6-0.8,3.3-0.5,5.5-0.6c-2.6,3.2-5.2,5.3-8.6,6.4c-0.2-0.2-0.3-0.3-0.3-0.5
		C84.2,64.6,84.3,64.5,84.4,64.5z"/>
	<path class="st13" d="M83.7,25.4c-0.5-0.2-0.9-0.5-0.9-1.2c0.5-0.3,0.8-0.2,1.1,0.3C84,24.8,84,25,84,25.3L83.7,25.4z"/>
	<path class="st14" d="M84.4,64.5c0,0.3,0.1,0.5,0.1,0.8c-0.2,0.5-0.5,0.7-1,0.4C83.4,65,83.9,64.7,84.4,64.5z"/>
	<path class="st15" d="M69.2,24.6c0-0.2,0-0.4,0-0.7c0.1-0.1,0.2-0.3,0.4-0.4C70,24.1,69.7,24.4,69.2,24.6z"/>
	<path class="st0" d="M84,25.3c-0.1-0.3-0.1-0.5-0.2-0.8c0.2,0.1,0.4,0.2,0.7,0.3C84.3,25,84.1,25.1,84,25.3z"/>
	<path class="st16" d="M67.8,65.2c0.2,0.1,0.4,0.2,0.5,0.3C67.9,66,67.8,65.7,67.8,65.2L67.8,65.2z"/>
</g>
</svg>
