<?xml version="1.0" encoding="utf-8"?>
<!-- Generator: Adobe Illustrator 24.2.1, SVG Export Plug-In . SVG Version: 6.00 Build 0)  -->
<svg version="1.1" id="Layer_1" xmlns="http://www.w3.org/2000/svg" xmlns:xlink="http://www.w3.org/1999/xlink" x="0px" y="0px"
	 viewBox="0 0 624 174" style="enable-background:new 0 0 624 174;" xml:space="preserve">
<style type="text/css">
	.st0{fill:#ECC615;}
	.st1{fill:#03528F;}
	.st2{fill:#05538F;}
	.st3{fill:#04528F;}
	.st4{fill:#ECC718;}
	.st5{fill:#ECC716;}
	.st6{fill:#ECC717;}
	.st7{fill:#ECC719;}
	.st8{fill:#EDC81D;}
	.st9{fill:#EDC81E;}
	.st10{fill:#EDC81C;}
	.st11{fill:#EDC922;}
	.st12{fill:#EECB28;}
	.st13{fill:#F3DD75;}
	.st14{fill:#F7E9A7;}
	.st15{fill:#F8EAAA;}
	.st16{fill:#F1D450;}
</style>
<g id="surface1">
	<path class="st0" d="M90.5,75.1c-8.1,0-15.7,0-23.1,0c-11.1-12.2-19.8-14.5-30.8-8.4c-9.6,5.3-13.7,16.1-11.1,29
		c2.3,11.2,11,18.8,22.1,19.4c10.3,0.6,16.8-3.6,19.9-13.3c-7.9,0-15.7,0-23.7,0c-2-6.1-0.4-11.9-1.1-18.2c17,0,33.5,0,49.9,0
		c5.5,19.3-10.1,43.7-32.4,49.3c-26.9,6.7-49.1-7.4-55.8-32.1C-2.4,76,12,51.9,36.9,45.4C60.1,39.3,85.2,53,90.5,75.1z"/>
	<path class="st1" d="M349.9,46.8c0,27.5,0,54.6,0,82c-6.7,0-13,0-19.7,0c0-18,0-35.7,0-53.4c-15.9,16.9-29.3,35.4-43.9,53.4
		c-8.3,0-16.8,0-25.3,0c2.3-4.9,56-74.4,63.3-82C332.5,46.6,341,46.4,349.9,46.8z"/>
	<path class="st2" d="M531.8,47.8c7.1-0.7,13.5-0.4,20.4-0.2c0,9.8,0,19,0,28.2c-0.1,8.3,0.2,16.6-0.4,24.8
		c-1.2,17-9.1,25.8-25.3,28.4c-7.3,1.2-14.7,0.8-22-1.1c-11.9-3.3-19.4-12.3-19.9-26.3c-0.6-17.7-0.2-35.5-0.2-53.7
		c6.5-1.2,12.8-0.3,18.9-0.5c2,1.7,1.3,3.8,1.3,5.7c0.1,13.2,0,26.3,0,39.5c0,1.7-0.1,3.4,0.1,5.1c1,9.5,5.5,13.5,14.6,13.1
		c7.7-0.3,12-4.9,12.2-14.1c0.3-14.9,0.2-29.7,0.3-44.6C531.8,51,531.8,49.8,531.8,47.8z"/>
	<path class="st2" d="M614.5,51.5c-2.7,5.3-5.3,10.4-8,15.8c-6.2-2.5-11.9-7.4-18.8-3.3c-2.1,1.3-2.4,2-3,6.8
		c1.7,3.6,5.3,4.6,8.6,5.8c3.8,1.4,7.7,2.5,11.3,4.3c8.1,4,12.8,10.5,13,20.1c0.2,10.2-3,18.6-11.9,24c-13,8-35.7,4.9-45.7-5.1
		c2.4-5.3,5.1-10.6,8.4-16c4.9,2.9,9.1,6.5,14.7,7.4c2.9,0.5,5.7,0.5,8.3-0.8c2.5-1.2,4.2-3.1,4.5-6.1c0.2-3.1-1.5-5.1-3.9-6.4
		c-2.1-1.2-4.4-1.9-6.6-2.8c-1.8-0.7-3.6-1.3-5.4-1.9c-14-5.1-18.9-13-17-27c1.7-12,11.6-20.7,24.4-21.3
		C597,44.5,605.8,46.8,614.5,51.5z"/>
	<path class="st0" d="M98.2,64.1c-2-3.3-3.6-5.9-5.2-8.4c13.7-24.9,44.3-36.1,72.6-28.3c29.5,8.1,48.2,34.7,47.3,65
		c-0.9,31.5-23.1,54.9-49.2,61.3c-28.9,7.2-59.7-7.2-71-29.5c0.9-3.2,3.3-5.6,5-8.7c16.9,29.9,44.1,34.2,65.3,28.7
		c23.2-5.9,39.7-26.1,40.8-52.1c0.9-20.7-9.1-42.3-32.6-53c-13.4-6.1-27.2-6.4-41.1-2.2C115.9,41.2,105.8,50.9,98.2,64.1z"/>
	<path class="st1" d="M438.3,101.2c7.2,9.3,13.9,18,21.3,27.6c-8.4,0-15.7,0-23.4,0c-6-8.5-12.3-17.3-18.7-26.4
		c-6.3,0-12.4,0-18.7,0c-1.6-4.7-0.7-9-0.7-13c1.6-2.2,3.6-1.5,5.5-1.5c7.6-0.1,15.2,0.2,22.9-0.1c7.7-0.3,12.2-4.9,12-11.5
		c-0.2-6.5-4.3-10.4-12.1-10.7c-6.9-0.3-13.8-0.1-20.7-0.1c-2.3,0-4.7,0-7.3,0c-0.7-6.3-0.7-12.1,0-18.5c13.8-0.3,27.4-1.2,40.7,1.3
		c11.9,2.3,20.2,15.7,19.1,28.9C457,89.2,451.3,97.5,438.3,101.2z"/>
	<path class="st3" d="M246.1,97.9c0,10.3,0,20.3,0,30.5c-6.5,1.7-12.6,0.4-19.2,0.9c0-27.6,0-54.7,0-82.3c14.4,0,28.5,0,42.9,0
		c0.8,6,0.3,11.8,0.4,18.2c-8.1,0-15.9,0-23.9,0c0,4.8,0,8.9,0,13.5c7.4,1.7,15-0.3,22.6,1.2c1.1,5.7,0.3,11.2,0.6,17.1
		C261.6,98.3,254,97,246.1,97.9z"/>
	<path class="st1" d="M364.4,128.8c0-27.4,0-54.5,0-81.9c6.7,0,13,0,19.6,0c0,27.4,0,54.5,0,81.9
		C377.4,128.8,371.1,128.8,364.4,128.8z"/>
	<path class="st4" d="M150.8,67.6c6-0.9,11.3-0.9,17.1-0.8c2.2,7.8,3.9,15.5,3.4,24.3c-6.8,0-13.5,0-20.6,0
		C150.8,83.6,150.8,76,150.8,67.6z"/>
	<path class="st5" d="M145.8,91.6c-7.2,0.2-13.5,0.3-20-0.7c-1.1-8.4,0.5-16,2.9-23.9c5.6-0.6,10.9-0.1,16.6,0.2
		C146.3,75.3,145.6,83,145.8,91.6z"/>
	<path class="st4" d="M171.3,94.4c0.3,7.8-1.6,14-3.1,20.2c-5.6,2-11,1.7-17.2,1.3c-1.1-6.7-0.4-13.3-0.4-20.2
		C157.5,94.1,164.1,95.2,171.3,94.4z"/>
	<path class="st4" d="M125.6,95c6.9,0,13,0,19.6,0c1.2,7.1,0.6,13.7,0.4,20.6c-5.7,1.3-11,0.1-16.6-0.7
		C126.3,108.6,125.2,102.1,125.6,95z"/>
	<path class="st6" d="M110.3,64.5c4.7,0.5,8.7,1,13.1,1.5c-1.5,8.2-3.3,15.8-3.6,24c-5.8,0.6-11.1,0.2-16.7-1.7
		C102.8,79.5,105.7,71.9,110.3,64.5z"/>
	<path class="st6" d="M173.1,66.5c4.7-1.3,8.7-1.3,13-1.3c4.5,7.3,7.1,15.1,6.8,24.1c-5.5,1.3-10.7,1.1-16.6,0.8
		C176.3,82.2,175.3,74.6,173.1,66.5z"/>
	<path class="st4" d="M103,92.6c6,0.4,11.1,0.7,16.5,1c1,7.2,1.8,14,3.7,21c-4.7,0.8-8.6,0.2-13-0.1
		C105.9,108.3,103.9,101.3,103,92.6z"/>
	<path class="st7" d="M173.4,115.1c1.4-7,2.8-13.4,2.8-20c5.4-2.5,10.8-1.4,16.4-2.2c-0.2,8.3-2.9,14.8-6.6,21
		C181.9,115.4,177.9,114.9,173.4,115.1z"/>
	<path class="st8" d="M150.8,43.4c8.1,5.3,12.9,11.1,15.3,19.7c-5.3,0.9-10,0.9-15.6,0.5C150.2,57.5,150.1,51.4,150.8,43.4z"/>
	<path class="st6" d="M145.7,63.5c-5.3,0-10,0-15.4,0c2.8-8.5,6.9-15,15.1-19.4C146.2,50.9,145.8,56.9,145.7,63.5z"/>
	<path class="st9" d="M166.3,119.6c-3.7,7-7,13-15.2,15c-1.4-5.3-0.8-9.9-0.5-15C155.8,119.6,160.6,119.6,166.3,119.6z"/>
	<path class="st6" d="M130.8,119.7c5.2-0.9,9.6-0.4,14.4-0.2c1.3,5,0.4,10,0.7,15.4C137.4,132.7,133.9,126.9,130.8,119.7z"/>
	<path class="st8" d="M134.2,47.7c-4.1,4.1-6.7,9.3-9.1,14.6c-4,0.2-7.8,0.4-12.5-1.4c6.1-7.5,13.1-12.2,21.6-14.5
		c0.4,0.3,0.5,0.6,0.4,0.9C134.4,47.5,134.3,47.7,134.2,47.7z"/>
	<path class="st10" d="M165.6,47.9c8.9,3.8,12.9,6.8,17,13.5c-1.7,1.1-3.6,0.8-5.3,0.9c-1.6,0.1-3.3,0-5.3,0
		c-3-4.2-4.6-9.3-8.1-13.3l0.3-0.6C164.8,48.4,165.2,48.2,165.6,47.9z"/>
	<path class="st11" d="M131.3,131.2c-7.6-1.5-12.9-6.4-19-13.3c4.8,0.2,8.3,0.4,12,0.6c2.5,4.3,4.8,8.5,7.1,12.6L131.3,131.2z"/>
	<path class="st12" d="M165.4,129.5c2.8-3,4.2-6.9,6.4-10.3c3.3-1.7,6.7-1,11.4-1.3c-5.4,6.6-10.7,10.9-17.6,13.2
		c-0.4-0.3-0.6-0.7-0.5-1C165.2,129.7,165.3,129.5,165.4,129.5z"/>
	<path class="st13" d="M164,49.1c-1.1-0.4-1.9-1.1-1.9-2.4c1-0.6,1.7-0.3,2.2,0.7c0.4,0.5,0.5,1.1,0.4,1.7L164,49.1z"/>
	<path class="st14" d="M165.4,129.5c0.1,0.5,0.1,1.1,0.2,1.6c-0.4,1-1,1.5-2.1,0.8C163.5,130.6,164.4,130,165.4,129.5z"/>
	<path class="st15" d="M134.2,47.7c0-0.5,0-0.9,0-1.4c0.3-0.3,0.5-0.6,0.8-0.9C135.9,46.7,135.3,47.3,134.2,47.7z"/>
	<path class="st0" d="M164.7,49.1c-0.1-0.6-0.3-1.1-0.4-1.7c0.5,0.2,0.9,0.3,1.4,0.5C165.3,48.3,165,48.7,164.7,49.1z"/>
	<path class="st16" d="M131.4,131c0.4,0.2,0.7,0.4,1.1,0.7c-0.9,0.9-1.1,0.3-1.2-0.5L131.4,131z"/>
</g>
</svg>
