<?xml version="1.0" encoding="utf-8"?>
<!-- Generator: Adobe Illustrator 24.2.1, SVG Export Plug-In . SVG Version: 6.00 Build 0)  -->
<svg version="1.1" id="Layer_1" xmlns="http://www.w3.org/2000/svg" xmlns:xlink="http://www.w3.org/1999/xlink" x="0px" y="0px"
	 viewBox="0 0 156 43.5" style="enable-background:new 0 0 156 43.5;" xml:space="preserve">
<style type="text/css">
	.st0{fill:#ECC615;}
	.st1{fill:#03528F;}
	.st2{fill:#05538F;}
	.st3{fill:#04528F;}
	.st4{fill:#ECC718;}
	.st5{fill:#ECC716;}
	.st6{fill:#ECC717;}
	.st7{fill:#ECC719;}
	.st8{fill:#EDC81D;}
	.st9{fill:#EDC81E;}
	.st10{fill:#EDC81C;}
	.st11{fill:#EDC922;}
	.st12{fill:#EECB28;}
	.st13{fill:#F3DD75;}
	.st14{fill:#F7E9A7;}
	.st15{fill:#F8EAAA;}
	.st16{fill:#F1D450;}
</style>
<g id="surface1">
	<path class="st0" d="M28.77,18.71c-1.77,0-3.42,0-5.04,0c-2.43-2.66-4.31-3.16-6.73-1.84c-2.09,1.15-3,3.52-2.42,6.33
		c0.5,2.44,2.4,4.11,4.82,4.24c2.25,0.12,3.66-0.8,4.35-2.9c-1.73,0-3.43,0-5.16,0c-0.44-1.34-0.09-2.6-0.25-3.97
		c3.71,0,7.31,0,10.9,0c1.2,4.21-2.2,9.55-7.08,10.77c-5.86,1.46-10.71-1.61-12.18-7c-1.48-5.43,1.65-10.69,7.08-12.11
		C22.12,10.91,27.61,13.9,28.77,18.71z"/>
	<path class="st1" d="M85.38,12.55c0,6,0,11.93,0,17.91c-1.46,0-2.84,0-4.31,0c0-3.93,0-7.8,0-11.66c-3.46,3.69-6.4,7.73-9.58,11.67
		c-1.82,0-3.66,0-5.52,0c0.5-1.06,12.22-16.25,13.82-17.89C81.58,12.5,83.43,12.45,85.38,12.55z"/>
	<path class="st2" d="M125.09,12.77c1.56-0.15,2.94-0.08,4.45-0.05c0,2.14,0.01,4.16,0,6.16c-0.01,1.81,0.04,3.62-0.09,5.42
		c-0.27,3.72-1.99,5.64-5.52,6.2c-1.6,0.26-3.22,0.19-4.8-0.25c-2.6-0.71-4.24-2.7-4.35-5.74c-0.14-3.87-0.04-7.75-0.04-11.72
		c1.41-0.26,2.8-0.06,4.12-0.12c0.45,0.38,0.29,0.84,0.29,1.24c0.02,2.88,0,5.75,0.01,8.62c0,0.37-0.03,0.75,0.02,1.11
		c0.23,2.07,1.21,2.94,3.2,2.86c1.68-0.07,2.62-1.08,2.66-3.07c0.07-3.24,0.05-6.49,0.06-9.73
		C125.09,13.45,125.09,13.19,125.09,12.77z"/>
	<path class="st2" d="M143.14,13.57c-0.58,1.16-1.15,2.27-1.75,3.46c-1.36-0.54-2.59-1.61-4.11-0.72c-0.46,0.28-0.52,0.44-0.65,1.49
		c0.38,0.79,1.15,1,1.87,1.27c0.82,0.31,1.68,0.54,2.47,0.93c1.78,0.87,2.79,2.3,2.83,4.39c0.05,2.24-0.66,4.05-2.6,5.24
		c-2.83,1.74-7.8,1.07-9.97-1.1c0.53-1.16,1.11-2.32,1.84-3.5c1.07,0.62,2,1.42,3.21,1.62c0.64,0.11,1.23,0.1,1.82-0.18
		c0.54-0.27,0.92-0.68,0.97-1.34c0.05-0.67-0.32-1.11-0.84-1.41c-0.45-0.25-0.95-0.42-1.43-0.61c-0.39-0.15-0.78-0.28-1.17-0.42
		c-3.05-1.12-4.13-2.83-3.71-5.89c0.37-2.62,2.53-4.53,5.32-4.66C139.3,12.05,141.24,12.54,143.14,13.57z"/>
	<path class="st0" d="M30.43,16.31c-0.44-0.72-0.79-1.29-1.13-1.84c2.99-5.44,9.68-7.89,15.84-6.19c6.43,1.77,10.52,7.58,10.32,14.2
		c-0.21,6.88-5.05,11.98-10.75,13.39c-6.32,1.56-13.02-1.58-15.49-6.43c0.21-0.7,0.73-1.23,1.09-1.91
		c3.68,6.53,9.64,7.46,14.26,6.28c5.06-1.29,8.67-5.7,8.91-11.38c0.19-4.52-2-9.23-7.11-11.56c-2.91-1.34-5.94-1.41-8.97-0.48
		C34.31,11.33,32.1,13.43,30.43,16.31z"/>
	<path class="st1" d="M104.66,24.41c1.58,2.04,3.04,3.93,4.66,6.02c-1.84,0-3.42,0-5.11,0c-1.31-1.85-2.68-3.78-4.09-5.77
		c-1.37,0-2.7,0-4.09,0c-0.36-1.02-0.16-1.96-0.16-2.83c0.35-0.47,0.8-0.33,1.2-0.34c1.66-0.02,3.33,0.03,4.99-0.04
		c1.68-0.06,2.66-1.06,2.61-2.52c-0.05-1.41-0.95-2.27-2.64-2.34c-1.5-0.07-3.01-0.02-4.52-0.02c-0.51,0-1.02,0-1.59,0
		c-0.14-1.38-0.14-2.63,0-4.04c3.01-0.06,5.97-0.27,8.88,0.29c2.59,0.5,4.4,3.42,4.16,6.32C108.75,21.8,107.5,23.62,104.66,24.41z"
		/>
	<path class="st3" d="M62.71,23.7c0,2.26,0,4.43,0,6.65c-1.41,0.36-2.75,0.08-4.19,0.2c0-6.03,0-11.95,0-17.96c3.13,0,6.22,0,9.37,0
		c0.18,1.32,0.07,2.57,0.08,3.98c-1.78,0-3.47,0-5.22,0c0,1.05,0,1.93,0,2.94c1.61,0.37,3.29-0.06,4.94,0.26
		c0.24,1.24,0.06,2.45,0.12,3.74C66.09,23.79,64.44,23.5,62.71,23.7z"/>
	<path class="st1" d="M88.55,30.46c0-5.99,0-11.9,0-17.89c1.46,0,2.83,0,4.27,0c0,5.99,0,11.9,0,17.89
		C91.38,30.46,90,30.46,88.55,30.46z"/>
	<path class="st4" d="M41.92,17.09c1.31-0.2,2.48-0.19,3.74-0.17c0.49,1.7,0.84,3.38,0.75,5.3c-1.48,0-2.94,0-4.49,0
		C41.92,20.57,41.92,18.91,41.92,17.09z"/>
	<path class="st5" d="M40.83,22.32c-1.57,0.05-2.94,0.06-4.37-0.16c-0.25-1.83,0.11-3.5,0.62-5.21c1.23-0.14,2.39-0.01,3.63,0.05
		C40.94,18.77,40.79,20.45,40.83,22.32z"/>
	<path class="st4" d="M46.39,22.93c0.07,1.69-0.34,3.05-0.68,4.41c-1.22,0.43-2.39,0.36-3.77,0.29c-0.23-1.46-0.09-2.9-0.09-4.4
		C43.39,22.88,44.82,23.11,46.39,22.93z"/>
	<path class="st4" d="M36.42,23.06c1.51,0,2.84,0,4.27,0c0.26,1.54,0.14,2.99,0.09,4.51c-1.25,0.28-2.4,0.02-3.63-0.15
		C36.57,26.04,36.34,24.62,36.42,23.06z"/>
	<path class="st6" d="M33.07,16.4c1.04,0.12,1.9,0.22,2.87,0.33c-0.32,1.79-0.73,3.45-0.78,5.23c-1.27,0.13-2.42,0.05-3.65-0.36
		C31.45,19.69,32.08,18.02,33.07,16.4z"/>
	<path class="st6" d="M46.79,16.84c1.02-0.29,1.89-0.28,2.83-0.28c0.98,1.6,1.56,3.3,1.49,5.26c-1.21,0.29-2.33,0.24-3.63,0.18
		C47.48,20.29,47.26,18.62,46.79,16.84z"/>
	<path class="st4" d="M31.49,22.55c1.31,0.08,2.43,0.14,3.61,0.21c0.22,1.57,0.39,3.06,0.81,4.58c-1.02,0.17-1.89,0.05-2.83-0.03
		C32.11,25.98,31.68,24.44,31.49,22.55z"/>
	<path class="st7" d="M46.86,27.46c0.31-1.53,0.61-2.91,0.61-4.37c1.17-0.55,2.36-0.32,3.59-0.47c-0.05,1.8-0.64,3.23-1.44,4.59
		C48.71,27.51,47.84,27.41,46.86,27.46z"/>
	<path class="st8" d="M41.93,11.81c1.76,1.15,2.82,2.43,3.33,4.3c-1.16,0.2-2.18,0.2-3.4,0.12C41.8,14.87,41.77,13.54,41.93,11.81z"
		/>
	<path class="st6" d="M40.8,16.19c-1.16,0-2.18,0-3.36,0c0.62-1.85,1.5-3.28,3.29-4.23C40.92,13.44,40.82,14.74,40.8,16.19z"/>
	<path class="st9" d="M45.3,28.43c-0.8,1.53-1.52,2.84-3.31,3.27c-0.3-1.15-0.18-2.16-0.11-3.27C43.01,28.43,44.05,28.43,45.3,28.43
		z"/>
	<path class="st6" d="M37.54,28.45c1.14-0.19,2.1-0.08,3.14-0.05c0.29,1.11,0.08,2.18,0.14,3.37C39,31.29,38.22,30.03,37.54,28.45z"
		/>
	<path class="st8" d="M38.3,12.73c-0.89,0.9-1.47,2.02-1.99,3.2c-0.88,0.04-1.7,0.08-2.73-0.32c1.32-1.64,2.85-2.66,4.72-3.17
		c0.08,0.07,0.11,0.13,0.08,0.2C38.35,12.7,38.32,12.73,38.3,12.73z"/>
	<path class="st10" d="M45.15,12.79c1.95,0.82,2.8,1.49,3.72,2.96c-0.36,0.25-0.78,0.17-1.16,0.2c-0.36,0.03-0.71,0.01-1.15,0.01
		c-0.65-0.91-1.01-2.04-1.76-2.9l0.07-0.14C44.97,12.89,45.07,12.84,45.15,12.79z"/>
	<path class="st11" d="M37.67,30.96c-1.65-0.32-2.82-1.4-4.14-2.9c1.05,0.05,1.82,0.09,2.62,0.12c0.54,0.95,1.05,1.85,1.55,2.75
		L37.67,30.96z"/>
	<path class="st12" d="M45.11,30.6c0.61-0.66,0.91-1.52,1.41-2.25c0.73-0.36,1.47-0.21,2.48-0.29c-1.18,1.43-2.34,2.39-3.84,2.89
		c-0.09-0.07-0.13-0.14-0.11-0.23C45.07,30.64,45.09,30.6,45.11,30.6z"/>
	<path class="st13" d="M44.8,13.05c-0.23-0.1-0.42-0.23-0.42-0.52c0.23-0.14,0.38-0.07,0.48,0.15c0.09,0.11,0.12,0.23,0.09,0.37
		L44.8,13.05z"/>
	<path class="st14" d="M45.11,30.6c0.02,0.12,0.03,0.24,0.05,0.36c-0.09,0.21-0.21,0.33-0.45,0.18
		C44.7,30.84,44.89,30.71,45.11,30.6z"/>
	<path class="st15" d="M38.3,12.73c0-0.1,0-0.2,0-0.3c0.05-0.06,0.11-0.12,0.17-0.2C38.67,12.51,38.54,12.64,38.3,12.73z"/>
	<path class="st0" d="M44.94,13.04c-0.03-0.12-0.06-0.24-0.09-0.36c0.1,0.04,0.2,0.07,0.3,0.11C45.09,12.88,45.01,12.96,44.94,13.04
		z"/>
	<path class="st16" d="M37.7,30.93c0.08,0.05,0.16,0.1,0.24,0.15c-0.19,0.19-0.24,0.06-0.27-0.12L37.7,30.93z"/>
</g>
</svg>
