<?xml version="1.0" encoding="utf-8"?>
<!-- Generator: Adobe Illustrator 24.2.1, SVG Export Plug-In . SVG Version: 6.00 Build 0)  -->
<svg version="1.1" id="Layer_1" xmlns="http://www.w3.org/2000/svg" xmlns:xlink="http://www.w3.org/1999/xlink" x="0px" y="0px"
	 viewBox="0 0 156 43.5" style="enable-background:new 0 0 156 43.5;" xml:space="preserve">
<style type="text/css">
	.st0{fill:#ECC615;}
	.st1{fill:#FFFFFF;}
	.st2{fill:#ECC718;}
	.st3{fill:#ECC716;}
	.st4{fill:#ECC717;}
	.st5{fill:#ECC719;}
	.st6{fill:#EDC81D;}
	.st7{fill:#EDC81E;}
	.st8{fill:#EDC81C;}
	.st9{fill:#EDC922;}
	.st10{fill:#EECB28;}
	.st11{fill:#F3DD75;}
	.st12{fill:#F7E9A7;}
	.st13{fill:#F8EAAA;}
	.st14{fill:#F1D450;}
</style>
<g id="surface1">
	<path class="st0" d="M32,19.52c-1.65,0-3.19,0-4.7,0c-2.27-2.45-4.02-2.91-6.27-1.7c-1.95,1.06-2.79,3.25-2.25,5.84
		c0.46,2.25,2.24,3.79,4.49,3.91c2.1,0.11,3.41-0.74,4.05-2.68c-1.61,0-3.2,0-4.81,0c-0.41-1.23-0.09-2.4-0.23-3.66
		c3.46,0,6.81,0,10.16,0c1.12,3.88-2.05,8.81-6.6,9.93c-5.46,1.35-9.98-1.48-11.35-6.46c-1.38-5.01,1.54-9.86,6.6-11.17
		C25.8,12.32,30.92,15.08,32,19.52z"/>
	<path class="st1" d="M84.75,13.83c0,5.54,0,11,0,16.52c-1.36,0-2.65,0-4.02,0c0-3.62,0-7.2,0-10.75c-3.22,3.4-5.96,7.13-8.93,10.77
		c-1.7,0-3.41,0-5.14,0c0.46-0.98,11.39-14.99,12.88-16.5C81.21,13.79,82.93,13.74,84.75,13.83z"/>
	<path class="st1" d="M121.76,14.04c1.45-0.14,2.74-0.07,4.15-0.05c0,1.98,0.01,3.84,0,5.68c-0.01,1.67,0.04,3.34-0.09,5
		c-0.25,3.43-1.86,5.2-5.14,5.72c-1.49,0.24-3,0.18-4.47-0.23c-2.42-0.66-3.95-2.49-4.05-5.3c-0.13-3.57-0.04-7.15-0.04-10.81
		c1.31-0.24,2.61-0.05,3.84-0.11c0.42,0.35,0.27,0.77,0.27,1.14c0.02,2.66,0,5.3,0.01,7.95c0,0.34-0.03,0.69,0.02,1.02
		c0.21,1.91,1.13,2.71,2.98,2.64c1.56-0.06,2.44-1,2.48-2.83c0.07-2.99,0.05-5.98,0.05-8.97C121.76,14.66,121.76,14.42,121.76,14.04
		z"/>
	<path class="st1" d="M138.58,14.77c-0.54,1.07-1.07,2.09-1.63,3.19c-1.27-0.5-2.41-1.48-3.83-0.66c-0.43,0.26-0.48,0.41-0.61,1.38
		c0.36,0.73,1.07,0.92,1.74,1.17c0.77,0.29,1.57,0.5,2.3,0.86c1.66,0.8,2.6,2.12,2.64,4.05c0.05,2.07-0.62,3.73-2.43,4.83
		c-2.64,1.61-7.27,0.99-9.29-1.01c0.49-1.07,1.04-2.14,1.71-3.23c1,0.57,1.86,1.31,2.99,1.5c0.59,0.1,1.14,0.09,1.7-0.17
		c0.5-0.25,0.86-0.62,0.9-1.23c0.05-0.62-0.3-1.02-0.78-1.3c-0.42-0.23-0.89-0.39-1.33-0.56c-0.36-0.14-0.73-0.26-1.09-0.39
		c-2.84-1.04-3.85-2.61-3.46-5.43c0.35-2.42,2.36-4.18,4.96-4.3C135,13.37,136.81,13.82,138.58,14.77z"/>
	<path class="st0" d="M33.54,17.3c-0.41-0.66-0.73-1.19-1.05-1.7c2.79-5.02,9.02-7.28,14.76-5.71c5.99,1.63,9.8,6.99,9.62,13.1
		c-0.2,6.34-4.71,11.05-10.02,12.35c-5.89,1.44-12.13-1.46-14.43-5.93c0.2-0.64,0.68-1.13,1.02-1.76c3.43,6.02,8.98,6.88,13.29,5.79
		c4.71-1.19,8.08-5.26,8.3-10.5c0.18-4.17-1.86-8.51-6.62-10.66c-2.71-1.24-5.54-1.3-8.36-0.45C37.16,12.71,35.1,14.64,33.54,17.3z"
		/>
	<path class="st1" d="M102.72,24.77c1.47,1.88,2.83,3.62,4.34,5.55c-1.71,0-3.19,0-4.76,0c-1.22-1.71-2.5-3.48-3.81-5.32
		c-1.28,0-2.52,0-3.81,0c-0.34-0.94-0.15-1.81-0.15-2.61c0.33-0.43,0.75-0.3,1.12-0.31c1.55-0.02,3.11,0.03,4.65-0.04
		c1.57-0.05,2.48-0.98,2.43-2.32c-0.05-1.3-0.89-2.09-2.46-2.16c-1.4-0.06-2.8-0.02-4.21-0.02c-0.47,0-0.95,0-1.48,0
		c-0.13-1.27-0.13-2.43,0-3.73c2.8-0.05,5.56-0.25,8.28,0.27c2.41,0.46,4.1,3.16,3.88,5.83C106.53,22.36,105.37,24.04,102.72,24.77z
		"/>
	<path class="st1" d="M63.62,24.12c0,2.09,0,4.09,0,6.13c-1.31,0.33-2.56,0.07-3.9,0.18c0-5.56,0-11.02,0-16.56c2.91,0,5.8,0,8.73,0
		c0.17,1.21,0.07,2.37,0.07,3.67c-1.66,0-3.23,0-4.86,0c0,0.97,0,1.78,0,2.71c1.5,0.34,3.07-0.06,4.6,0.24
		c0.23,1.14,0.06,2.26,0.11,3.45C66.78,24.2,65.24,23.93,63.62,24.12z"/>
	<path class="st1" d="M87.71,30.35c0-5.52,0-10.98,0-16.5c1.36,0,2.64,0,3.98,0c0,5.52,0,10.98,0,16.5
		C90.34,30.35,89.06,30.35,87.71,30.35z"/>
	<path class="st2" d="M44.25,18.02c1.22-0.18,2.31-0.18,3.48-0.16c0.46,1.57,0.78,3.12,0.7,4.89c-1.38,0-2.74,0-4.18,0
		C44.25,21.23,44.25,19.7,44.25,18.02z"/>
	<path class="st3" d="M43.23,22.84c-1.46,0.05-2.74,0.05-4.07-0.15c-0.23-1.69,0.1-3.23,0.58-4.8c1.14-0.13,2.23-0.01,3.38,0.05
		C43.34,19.57,43.2,21.12,43.23,22.84z"/>
	<path class="st2" d="M48.42,23.41c0.07,1.56-0.32,2.81-0.63,4.07c-1.14,0.39-2.23,0.33-3.52,0.27c-0.21-1.35-0.08-2.68-0.08-4.06
		C45.62,23.36,46.95,23.57,48.42,23.41z"/>
	<path class="st2" d="M39.12,23.53c1.41,0,2.65,0,3.98,0c0.24,1.42,0.13,2.76,0.09,4.16c-1.17,0.26-2.24,0.02-3.38-0.14
		C39.27,26.28,39.05,24.96,39.12,23.53z"/>
	<path class="st4" d="M36,17.38c0.97,0.11,1.77,0.2,2.68,0.3c-0.3,1.65-0.68,3.18-0.73,4.82c-1.18,0.12-2.26,0.05-3.4-0.33
		C34.5,20.42,35.08,18.88,36,17.38z"/>
	<path class="st4" d="M48.79,17.79c0.95-0.27,1.76-0.26,2.64-0.26c0.91,1.48,1.46,3.04,1.39,4.85c-1.13,0.27-2.17,0.22-3.38,0.17
		C49.43,20.97,49.23,19.43,48.79,17.79z"/>
	<path class="st2" d="M34.53,23.05c1.22,0.07,2.27,0.13,3.37,0.2c0.2,1.45,0.36,2.82,0.75,4.23c-0.95,0.16-1.76,0.04-2.64-0.03
		C35.11,26.22,34.71,24.8,34.53,23.05z"/>
	<path class="st5" d="M48.86,27.59c0.29-1.41,0.57-2.68,0.57-4.03c1.09-0.51,2.2-0.3,3.34-0.43c-0.05,1.66-0.6,2.98-1.34,4.23
		C50.58,27.63,49.77,27.54,48.86,27.59z"/>
	<path class="st6" d="M44.26,13.15c1.64,1.06,2.63,2.24,3.1,3.97c-1.08,0.18-2.03,0.18-3.17,0.11
		C44.14,15.97,44.11,14.75,44.26,13.15z"/>
	<path class="st4" d="M43.21,17.19c-1.08,0-2.03,0-3.13,0c0.58-1.71,1.4-3.03,3.07-3.9C43.32,14.65,43.23,15.85,43.21,17.19z"/>
	<path class="st7" d="M47.4,28.48c-0.75,1.41-1.42,2.62-3.09,3.02c-0.28-1.06-0.17-1.99-0.1-3.02
		C45.27,28.48,46.24,28.48,47.4,28.48z"/>
	<path class="st4" d="M40.17,28.5c1.06-0.18,1.96-0.07,2.93-0.05c0.27,1.02,0.07,2.01,0.13,3.11C41.53,31.12,40.8,29.96,40.17,28.5z
		"/>
	<path class="st6" d="M40.88,14c-0.83,0.83-1.37,1.86-1.86,2.95c-0.82,0.04-1.58,0.07-2.54-0.29c1.23-1.52,2.66-2.45,4.4-2.93
		c0.07,0.07,0.1,0.12,0.07,0.18C40.93,13.97,40.9,14,40.88,14z"/>
	<path class="st8" d="M47.26,14.05c1.82,0.75,2.61,1.38,3.47,2.73c-0.34,0.23-0.73,0.16-1.08,0.18c-0.34,0.03-0.66,0.01-1.07,0.01
		c-0.61-0.84-0.94-1.88-1.64-2.67L47,14.18C47.09,14.14,47.19,14.1,47.26,14.05z"/>
	<path class="st9" d="M40.29,30.81c-1.54-0.29-2.63-1.29-3.86-2.67c0.98,0.04,1.7,0.08,2.44,0.11c0.5,0.88,0.98,1.71,1.45,2.54
		L40.29,30.81z"/>
	<path class="st10" d="M47.23,30.48c0.57-0.61,0.85-1.4,1.31-2.07c0.68-0.33,1.37-0.2,2.31-0.27c-1.1,1.32-2.18,2.2-3.58,2.66
		c-0.08-0.07-0.12-0.13-0.1-0.21C47.19,30.52,47.21,30.48,47.23,30.48z"/>
	<path class="st11" d="M46.94,14.29c-0.21-0.09-0.39-0.21-0.39-0.48c0.21-0.13,0.36-0.06,0.45,0.14c0.08,0.1,0.11,0.21,0.08,0.34
		H46.94z"/>
	<path class="st12" d="M47.23,30.48c0.02,0.11,0.03,0.22,0.04,0.33c-0.08,0.2-0.2,0.3-0.42,0.17C46.84,30.7,47.02,30.58,47.23,30.48
		z"/>
	<path class="st13" d="M40.88,14c0-0.09,0-0.19,0-0.28c0.05-0.05,0.1-0.11,0.16-0.18C41.22,13.8,41.1,13.91,40.88,14z"/>
	<path class="st0" d="M47.07,14.29c-0.03-0.11-0.05-0.22-0.08-0.33c0.09,0.04,0.18,0.06,0.28,0.1
		C47.21,14.14,47.13,14.21,47.07,14.29z"/>
	<path class="st14" d="M40.32,30.79c0.07,0.05,0.15,0.09,0.22,0.14c-0.18,0.17-0.22,0.05-0.25-0.11L40.32,30.79z"/>
</g>
</svg>
